<?xml version="1.0" encoding="UTF-8"?>
<svg xmlns="http://www.w3.org/2000/svg" xmlns:xlink="http://www.w3.org/1999/xlink" width="400pt" height="400pt" viewBox="0 0 400 400" version="1.1">
<g id="surface1">
<path style=" stroke:none;fill-rule:nonzero;fill:rgb(0%,20%,60%);fill-opacity:1;" d="M 265.265625 309.941406 C 257.578125 322.742188 249.886719 335.539062 242.195312 348.335938 C 237.441406 340.449219 232.691406 332.5625 227.9375 324.671875 C 209.726562 328.679688 190.703125 328.683594 172.492188 324.671875 C 167.734375 332.5625 162.976562 340.449219 158.21875 348.335938 C 150.085938 335.457031 142.945312 321.609375 134.199219 309.328125 C 94.683594 286.359375 70.175781 240.660156 72.609375 194.9375 C 73.65625 150.273438 100.597656 107.867188 140.105469 87.449219 C 140.105469 77.996094 140.105469 68.542969 140.105469 59.089844 C 180.171875 59.089844 220.238281 59.089844 260.308594 59.089844 C 260.308594 68.542969 260.308594 77.996094 260.308594 87.449219 C 300.183594 107.953125 326.949219 150.882812 327.953125 195.832031 C 329.539062 252.039062 302.039062 287.558594 265.265625 309.941406 Z M 399.539062 179.847656 C 391.082031 178.460938 374.269531 176.957031 358.292969 174.050781 C 356.644531 163.640625 353.742188 153.449219 350.113281 143.570312 C 360.859375 134.695312 371.609375 125.820312 382.359375 116.945312 C 377.234375 105.316406 370.636719 94.402344 363.390625 83.988281 C 350.324219 88.863281 337.253906 93.738281 324.1875 98.613281 C 317.457031 90.421875 309.921875 82.898438 301.730469 76.1875 C 306.609375 63.136719 311.488281 50.085938 316.367188 37.035156 C 305.996094 29.710938 294.972656 23.269531 283.378906 18.085938 C 274.488281 28.820312 265.597656 39.554688 256.707031 50.292969 C 246.828125 46.601562 236.601562 43.84375 226.199219 42.125 C 223.882812 28.371094 221.566406 14.617188 219.25 0.863281 C 206.585938 -0.289062 193.832031 -0.285156 181.164062 0.863281 C 178.847656 14.617188 176.53125 28.371094 174.214844 42.125 C 163.8125 43.863281 153.585938 46.601562 143.703125 50.292969 C 134.816406 39.554688 125.925781 28.820312 117.035156 18.085938 C 105.421875 23.230469 94.457031 29.765625 84.046875 37.035156 C 88.925781 50.085938 93.804688 63.136719 98.6875 76.1875 C 90.566406 82.929688 82.910156 90.3125 76.355469 98.613281 C 63.25 93.738281 50.140625 88.863281 37.035156 83.988281 C 29.761719 94.386719 23.203125 105.324219 18.054688 116.945312 C 28.804688 125.820312 39.554688 134.695312 50.304688 143.570312 C 46.605469 153.4375 43.867188 163.65625 42.121094 174.050781 C 28.351562 176.363281 14.582031 178.671875 0.8125 180.984375 C -0.269531 193.628906 -0.269531 206.363281 0.8125 219.011719 C 14.582031 221.324219 28.351562 223.640625 42.121094 225.957031 C 43.863281 236.34375 46.585938 246.566406 50.304688 256.421875 C 39.554688 265.300781 28.804688 274.183594 18.054688 283.0625 C 23.242188 294.648438 29.707031 305.652344 37.035156 316 C 50.140625 311.132812 63.25 306.261719 76.355469 301.394531 C 82.933594 309.671875 90.558594 317.085938 98.6875 323.816406 C 93.804688 336.863281 88.925781 349.910156 84.046875 362.957031 C 94.460938 370.226562 105.414062 376.769531 117.035156 381.910156 C 125.925781 371.171875 134.816406 360.433594 143.703125 349.699219 C 153.574219 353.421875 163.808594 356.191406 174.214844 357.882812 C 176.53125 371.632812 178.847656 385.378906 181.164062 399.128906 C 193.832031 400.289062 206.582031 400.289062 219.25 399.128906 C 221.566406 385.378906 223.882812 371.632812 226.199219 357.882812 C 236.605469 356.210938 246.839844 353.421875 256.707031 349.699219 C 265.597656 360.433594 274.488281 371.171875 283.378906 381.910156 C 294.976562 376.734375 305.996094 370.277344 316.367188 362.957031 C 311.488281 349.910156 306.609375 336.863281 301.730469 323.816406 C 309.929688 317.113281 317.433594 309.5625 324.1875 301.394531 C 337.253906 306.261719 350.324219 311.132812 363.390625 316 C 370.691406 305.636719 377.195312 294.660156 382.359375 283.0625 C 371.609375 274.183594 360.859375 265.300781 350.113281 256.421875 C 353.761719 246.554688 356.648438 236.359375 358.292969 225.957031 C 372.0625 223.640625 385.832031 221.324219 399.601562 219.011719 C 400.222656 207.675781 400.050781 187.328125 399.539062 179.847656 Z M 399.539062 179.847656 "/>
<path style=" stroke:none;fill-rule:evenodd;fill:rgb(0%,20%,60%);fill-opacity:1;" d="M 254.605469 64.785156 L 145.945312 64.785156 L 145.945312 93.398438 L 172.605469 93.398438 L 172.605469 87.578125 L 186.878906 87.578125 L 186.878906 140.96875 L 181.164062 140.96875 L 181.164062 163.886719 L 219.25 163.886719 L 219.25 140.96875 L 213.550781 140.96875 L 213.550781 87.703125 L 227.9375 87.703125 L 227.9375 93.398438 L 254.605469 93.398438 L 254.605469 64.785156 "/>
<path style=" stroke:none;fill-rule:evenodd;fill:rgb(0%,20%,60%);fill-opacity:1;" d="M 141.101562 108.636719 L 141.101562 131.550781 L 146.929688 131.550781 L 146.929688 222.976562 L 141.101562 222.847656 L 141.101562 245.765625 L 179.3125 245.765625 L 179.3125 222.847656 L 173.597656 222.847656 L 173.597656 200.058594 L 226.941406 200.058594 L 226.941406 222.847656 L 221.238281 222.847656 L 221.238281 245.765625 L 259.316406 245.765625 L 259.316406 222.847656 L 253.613281 222.847656 L 253.613281 131.4375 L 259.316406 131.550781 L 259.316406 108.636719 L 221.238281 108.636719 L 221.238281 131.550781 L 226.941406 131.550781 L 226.941406 177.144531 L 173.597656 177.144531 L 173.597656 131.550781 L 179.3125 131.550781 L 179.3125 108.636719 L 141.101562 108.636719 "/>
<path style=" stroke:none;fill-rule:evenodd;fill:rgb(0%,20%,60%);fill-opacity:1;" d="M 200.269531 267.332031 L 242.195312 337.0625 L 297.148438 245.648438 L 310.792969 245.648438 L 310.792969 222.847656 L 265.140625 222.847656 L 265.140625 245.648438 L 270.476562 245.648438 L 242.195312 292.722656 L 200.144531 222.847656 L 158.21875 292.722656 L 130.0625 245.648438 L 135.398438 245.648438 L 135.398438 222.847656 L 89.621094 222.847656 L 89.621094 245.648438 L 103.390625 245.648438 L 158.34375 337.0625 L 200.269531 267.332031 "/>
</g>
</svg>
