<?xml version="1.0" encoding="UTF-8"?>
<svg xmlns="http://www.w3.org/2000/svg" xmlns:xlink="http://www.w3.org/1999/xlink" width="10pt" height="10pt" viewBox="0 0 10 10" version="1.1">
<g id="surface1">
<path style=" stroke:none;fill-rule:nonzero;fill:rgb(0%,20%,60%);fill-opacity:1;" d="M 6.632812 7.75 C 6.4375 8.070312 6.246094 8.386719 6.054688 8.707031 C 5.9375 8.511719 5.816406 8.3125 5.699219 8.117188 C 5.242188 8.21875 4.765625 8.21875 4.3125 8.117188 C 4.191406 8.3125 4.074219 8.511719 3.957031 8.707031 C 3.753906 8.386719 3.574219 8.039062 3.355469 7.734375 C 2.367188 7.160156 1.753906 6.015625 1.816406 4.875 C 1.839844 3.757812 2.515625 2.695312 3.503906 2.1875 C 3.503906 1.949219 3.503906 1.714844 3.503906 1.476562 C 4.503906 1.476562 5.507812 1.476562 6.507812 1.476562 C 6.507812 1.714844 6.507812 1.949219 6.507812 2.1875 C 7.503906 2.699219 8.171875 3.773438 8.199219 4.894531 C 8.238281 6.300781 7.550781 7.1875 6.632812 7.75 Z M 9.988281 4.496094 C 9.777344 4.460938 9.355469 4.425781 8.957031 4.351562 C 8.917969 4.089844 8.84375 3.835938 8.753906 3.589844 C 9.023438 3.367188 9.289062 3.144531 9.558594 2.921875 C 9.429688 2.632812 9.265625 2.359375 9.085938 2.101562 C 8.757812 2.222656 8.429688 2.34375 8.105469 2.464844 C 7.9375 2.261719 7.746094 2.074219 7.542969 1.90625 C 7.664062 1.578125 7.789062 1.253906 7.910156 0.925781 C 7.648438 0.742188 7.375 0.582031 7.085938 0.453125 C 6.863281 0.71875 6.640625 0.988281 6.417969 1.257812 C 6.171875 1.164062 5.914062 1.097656 5.65625 1.054688 C 5.597656 0.710938 5.539062 0.367188 5.480469 0.0234375 C 5.164062 -0.0078125 4.847656 -0.0078125 4.527344 0.0234375 C 4.472656 0.367188 4.414062 0.710938 4.355469 1.054688 C 4.09375 1.097656 3.839844 1.164062 3.59375 1.257812 C 3.371094 0.988281 3.148438 0.71875 2.925781 0.453125 C 2.636719 0.582031 2.363281 0.742188 2.101562 0.925781 C 2.222656 1.253906 2.34375 1.578125 2.46875 1.90625 C 2.265625 2.074219 2.074219 2.257812 1.910156 2.464844 C 1.582031 2.34375 1.253906 2.222656 0.925781 2.101562 C 0.742188 2.359375 0.578125 2.632812 0.453125 2.921875 C 0.71875 3.144531 0.988281 3.367188 1.257812 3.589844 C 1.164062 3.835938 1.097656 4.089844 1.054688 4.351562 C 0.707031 4.410156 0.363281 4.464844 0.0195312 4.523438 C -0.0078125 4.839844 -0.0078125 5.160156 0.0195312 5.476562 C 0.363281 5.53125 0.707031 5.589844 1.054688 5.648438 C 1.097656 5.910156 1.164062 6.164062 1.257812 6.410156 C 0.988281 6.632812 0.71875 6.855469 0.453125 7.078125 C 0.582031 7.367188 0.742188 7.640625 0.925781 7.898438 C 1.253906 7.777344 1.582031 7.65625 1.910156 7.535156 C 2.074219 7.742188 2.265625 7.925781 2.46875 8.09375 C 2.34375 8.421875 2.222656 8.746094 2.101562 9.074219 C 2.363281 9.253906 2.636719 9.417969 2.925781 9.546875 C 3.148438 9.28125 3.371094 9.011719 3.59375 8.742188 C 3.839844 8.835938 4.09375 8.90625 4.355469 8.945312 C 4.414062 9.289062 4.472656 9.632812 4.527344 9.976562 C 4.847656 10.007812 5.164062 10.007812 5.480469 9.976562 C 5.539062 9.632812 5.597656 9.289062 5.65625 8.945312 C 5.914062 8.90625 6.171875 8.835938 6.417969 8.742188 C 6.640625 9.011719 6.863281 9.28125 7.085938 9.546875 C 7.375 9.417969 7.648438 9.257812 7.910156 9.074219 C 7.789062 8.746094 7.664062 8.421875 7.542969 8.09375 C 7.75 7.929688 7.9375 7.738281 8.105469 7.535156 C 8.429688 7.65625 8.757812 7.777344 9.085938 7.898438 C 9.265625 7.640625 9.429688 7.367188 9.558594 7.078125 C 9.289062 6.855469 9.023438 6.632812 8.753906 6.410156 C 8.84375 6.164062 8.917969 5.910156 8.957031 5.648438 C 9.300781 5.589844 9.644531 5.53125 9.988281 5.476562 C 10.003906 5.191406 10 4.683594 9.988281 4.496094 Z M 9.988281 4.496094 "/>
<path style=" stroke:none;fill-rule:evenodd;fill:rgb(0%,20%,60%);fill-opacity:1;" d="M 6.363281 1.621094 L 3.648438 1.621094 L 3.648438 2.335938 L 4.316406 2.335938 L 4.316406 2.1875 L 4.671875 2.1875 L 4.671875 3.523438 L 4.527344 3.523438 L 4.527344 4.097656 L 5.480469 4.097656 L 5.480469 3.523438 L 5.339844 3.523438 L 5.339844 2.191406 L 5.699219 2.191406 L 5.699219 2.335938 L 6.363281 2.335938 L 6.363281 1.621094 "/>
<path style=" stroke:none;fill-rule:evenodd;fill:rgb(0%,20%,60%);fill-opacity:1;" d="M 3.527344 2.714844 L 3.527344 3.289062 L 3.671875 3.289062 L 3.671875 5.574219 L 3.527344 5.570312 L 3.527344 6.144531 L 4.484375 6.144531 L 4.484375 5.570312 L 4.339844 5.570312 L 4.339844 5 L 5.671875 5 L 5.671875 5.570312 L 5.53125 5.570312 L 5.53125 6.144531 L 6.484375 6.144531 L 6.484375 5.570312 L 6.339844 5.570312 L 6.339844 3.285156 L 6.484375 3.289062 L 6.484375 2.714844 L 5.53125 2.714844 L 5.53125 3.289062 L 5.671875 3.289062 L 5.671875 4.429688 L 4.339844 4.429688 L 4.339844 3.289062 L 4.484375 3.289062 L 4.484375 2.714844 L 3.527344 2.714844 "/>
<path style=" stroke:none;fill-rule:evenodd;fill:rgb(0%,20%,60%);fill-opacity:1;" d="M 5.007812 6.683594 L 6.054688 8.425781 L 7.429688 6.140625 L 7.769531 6.140625 L 7.769531 5.570312 L 6.628906 5.570312 L 6.628906 6.140625 L 6.761719 6.140625 L 6.054688 7.316406 L 5.003906 5.570312 L 3.957031 7.316406 L 3.25 6.140625 L 3.386719 6.140625 L 3.386719 5.570312 L 2.242188 5.570312 L 2.242188 6.140625 L 2.585938 6.140625 L 3.957031 8.425781 L 5.007812 6.683594 "/>
</g>
</svg>
