<?xml version="1.0" encoding="UTF-8"?>
<svg xmlns="http://www.w3.org/2000/svg" xmlns:xlink="http://www.w3.org/1999/xlink" width="30pt" height="30pt" viewBox="0 0 30 30" version="1.1">
<g id="surface1">
<path style=" stroke:none;fill-rule:nonzero;fill:rgb(0%,20%,60%);fill-opacity:1;" d="M 19.894531 23.246094 C 19.316406 24.207031 18.742188 25.164062 18.164062 26.125 C 17.808594 25.535156 17.453125 24.941406 17.09375 24.351562 C 15.730469 24.652344 14.300781 24.652344 12.9375 24.351562 C 12.578125 24.941406 12.222656 25.535156 11.867188 26.125 C 11.257812 25.160156 10.722656 24.121094 10.066406 23.199219 C 7.101562 21.476562 5.261719 18.050781 5.445312 14.621094 C 5.523438 11.269531 7.542969 8.089844 10.507812 6.558594 C 10.507812 5.851562 10.507812 5.140625 10.507812 4.433594 C 13.511719 4.433594 16.519531 4.433594 19.523438 4.433594 C 19.523438 5.140625 19.523438 5.851562 19.523438 6.558594 C 22.515625 8.097656 24.519531 11.316406 24.597656 14.6875 C 24.714844 18.902344 22.652344 21.566406 19.894531 23.246094 Z M 29.964844 13.488281 C 29.332031 13.382812 28.070312 13.273438 26.871094 13.054688 C 26.75 12.273438 26.53125 11.507812 26.257812 10.769531 C 27.0625 10.101562 27.871094 9.4375 28.675781 8.769531 C 28.292969 7.898438 27.796875 7.082031 27.253906 6.300781 C 26.273438 6.664062 25.292969 7.03125 24.3125 7.394531 C 23.808594 6.78125 23.242188 6.21875 22.628906 5.714844 C 22.996094 4.734375 23.363281 3.757812 23.726562 2.777344 C 22.949219 2.226562 22.121094 1.746094 21.253906 1.355469 C 20.585938 2.160156 19.917969 2.964844 19.253906 3.773438 C 18.511719 3.496094 17.746094 3.289062 16.964844 3.160156 C 16.792969 2.128906 16.617188 1.097656 16.445312 0.0664062 C 15.492188 -0.0234375 14.539062 -0.0195312 13.585938 0.0664062 C 13.414062 1.097656 13.238281 2.128906 13.066406 3.160156 C 12.285156 3.289062 11.519531 3.496094 10.777344 3.773438 C 10.109375 2.964844 9.445312 2.160156 8.777344 1.355469 C 7.90625 1.742188 7.085938 2.230469 6.304688 2.777344 C 6.667969 3.757812 7.035156 4.734375 7.402344 5.714844 C 6.792969 6.21875 6.21875 6.773438 5.726562 7.394531 C 4.742188 7.03125 3.761719 6.664062 2.777344 6.300781 C 2.230469 7.078125 1.742188 7.898438 1.355469 8.769531 C 2.160156 9.4375 2.964844 10.101562 3.773438 10.769531 C 3.496094 11.507812 3.289062 12.273438 3.160156 13.054688 C 2.125 13.226562 1.09375 13.398438 0.0625 13.574219 C -0.0195312 14.523438 -0.0195312 15.476562 0.0625 16.425781 C 1.09375 16.597656 2.125 16.773438 3.160156 16.945312 C 3.289062 17.726562 3.492188 18.492188 3.773438 19.230469 C 2.964844 19.898438 2.160156 20.5625 1.355469 21.230469 C 1.742188 22.097656 2.226562 22.925781 2.777344 23.699219 C 3.761719 23.335938 4.742188 22.96875 5.726562 22.605469 C 6.21875 23.226562 6.792969 23.78125 7.402344 24.285156 C 7.035156 25.265625 6.667969 26.242188 6.304688 27.222656 C 7.085938 27.765625 7.90625 28.257812 8.777344 28.644531 C 9.445312 27.835938 10.109375 27.03125 10.777344 26.226562 C 11.519531 26.507812 12.285156 26.714844 13.066406 26.839844 C 13.238281 27.871094 13.414062 28.902344 13.585938 29.933594 C 14.539062 30.023438 15.492188 30.023438 16.445312 29.933594 C 16.617188 28.902344 16.792969 27.871094 16.964844 26.839844 C 17.746094 26.714844 18.511719 26.507812 19.253906 26.226562 C 19.917969 27.03125 20.585938 27.835938 21.253906 28.644531 C 22.125 28.253906 22.949219 27.769531 23.726562 27.222656 C 23.363281 26.242188 22.996094 25.265625 22.628906 24.285156 C 23.246094 23.785156 23.808594 23.21875 24.3125 22.605469 C 25.292969 22.96875 26.273438 23.335938 27.253906 23.699219 C 27.800781 22.921875 28.289062 22.097656 28.675781 21.230469 C 27.871094 20.5625 27.0625 19.898438 26.257812 19.230469 C 26.53125 18.492188 26.75 17.726562 26.871094 16.945312 C 27.90625 16.773438 28.9375 16.597656 29.96875 16.425781 C 30.015625 15.574219 30.003906 14.050781 29.964844 13.488281 Z M 29.964844 13.488281 "/>
<path style=" stroke:none;fill-rule:evenodd;fill:rgb(0%,20%,60%);fill-opacity:1;" d="M 19.09375 4.859375 L 10.945312 4.859375 L 10.945312 7.003906 L 12.945312 7.003906 L 12.945312 6.570312 L 14.015625 6.570312 L 14.015625 10.574219 L 13.585938 10.574219 L 13.585938 12.292969 L 16.445312 12.292969 L 16.445312 10.574219 L 16.015625 10.574219 L 16.015625 6.578125 L 17.09375 6.578125 L 17.09375 7.003906 L 19.09375 7.003906 L 19.09375 4.859375 "/>
<path style=" stroke:none;fill-rule:evenodd;fill:rgb(0%,20%,60%);fill-opacity:1;" d="M 10.582031 8.148438 L 10.582031 9.867188 L 11.019531 9.867188 L 11.019531 16.722656 L 10.582031 16.714844 L 10.582031 18.433594 L 13.449219 18.433594 L 13.449219 16.714844 L 13.019531 16.714844 L 13.019531 15.003906 L 17.019531 15.003906 L 17.019531 16.714844 L 16.59375 16.714844 L 16.59375 18.433594 L 19.449219 18.433594 L 19.449219 16.714844 L 19.019531 16.714844 L 19.019531 9.859375 L 19.449219 9.867188 L 19.449219 8.148438 L 16.59375 8.148438 L 16.59375 9.867188 L 17.019531 9.867188 L 17.019531 13.285156 L 13.019531 13.285156 L 13.019531 9.867188 L 13.449219 9.867188 L 13.449219 8.148438 L 10.582031 8.148438 "/>
<path style=" stroke:none;fill-rule:evenodd;fill:rgb(0%,20%,60%);fill-opacity:1;" d="M 15.019531 20.050781 L 18.164062 25.28125 L 22.285156 18.421875 L 23.308594 18.421875 L 23.308594 16.714844 L 19.886719 16.714844 L 19.886719 18.421875 L 20.285156 18.421875 L 18.164062 21.953125 L 15.011719 16.714844 L 11.867188 21.953125 L 9.753906 18.421875 L 10.15625 18.421875 L 10.15625 16.714844 L 6.722656 16.714844 L 6.722656 18.421875 L 7.753906 18.421875 L 11.875 25.28125 L 15.019531 20.050781 "/>
</g>
</svg>
