<?xml version="1.0" encoding="UTF-8"?>
<svg xmlns="http://www.w3.org/2000/svg" xmlns:xlink="http://www.w3.org/1999/xlink" width="512pt" height="512pt" viewBox="0 0 512 512" version="1.1">
<g id="surface1">
<path style=" stroke:none;fill-rule:nonzero;fill:rgb(0%,20%,60%);fill-opacity:1;" d="M 339.542969 396.726562 C 329.699219 413.109375 319.855469 429.488281 310.007812 445.871094 C 303.925781 435.773438 297.84375 425.679688 291.757812 415.582031 C 268.449219 420.707031 244.101562 420.714844 220.792969 415.582031 C 214.699219 425.679688 208.609375 435.773438 202.519531 445.871094 C 192.109375 429.386719 182.96875 411.660156 171.773438 395.941406 C 121.195312 366.542969 89.824219 308.042969 92.9375 249.519531 C 94.277344 192.351562 128.765625 138.066406 179.332031 111.933594 C 179.332031 99.835938 179.332031 87.734375 179.332031 75.636719 C 230.621094 75.636719 281.90625 75.636719 333.195312 75.636719 C 333.195312 87.734375 333.195312 99.835938 333.195312 111.933594 C 384.234375 138.179688 418.492188 193.128906 419.78125 250.664062 C 421.808594 322.609375 386.609375 368.074219 339.542969 396.726562 Z M 511.414062 230.207031 C 500.585938 228.429688 479.066406 226.503906 458.613281 222.785156 C 456.507812 209.460938 452.792969 196.417969 448.144531 183.769531 C 461.902344 172.410156 475.660156 161.050781 489.417969 149.691406 C 482.859375 134.804688 474.414062 120.832031 465.140625 107.507812 C 448.414062 113.746094 431.6875 119.984375 414.957031 126.222656 C 406.34375 115.742188 396.699219 106.113281 386.214844 97.519531 C 392.460938 80.816406 398.707031 64.109375 404.953125 47.40625 C 391.675781 38.03125 377.5625 29.785156 362.726562 23.148438 C 351.347656 36.890625 339.964844 50.632812 328.585938 64.375 C 315.9375 59.652344 302.851562 56.121094 289.53125 53.921875 C 286.570312 36.316406 283.605469 18.710938 280.640625 1.105469 C 264.429688 -0.371094 248.105469 -0.367188 231.890625 1.105469 C 228.925781 18.710938 225.960938 36.316406 222.996094 53.921875 C 209.679688 56.144531 196.589844 59.648438 183.941406 64.375 C 172.5625 50.632812 161.183594 36.890625 149.804688 23.148438 C 134.9375 29.734375 120.90625 38.097656 107.582031 47.40625 C 113.828125 64.109375 120.074219 80.816406 126.316406 97.519531 C 115.925781 106.148438 106.125 115.601562 97.734375 126.222656 C 80.957031 119.984375 64.183594 113.746094 47.40625 107.507812 C 38.097656 120.8125 29.699219 134.816406 23.109375 149.691406 C 36.867188 161.050781 50.628906 172.410156 64.386719 183.769531 C 59.652344 196.398438 56.152344 209.480469 53.914062 222.785156 C 36.289062 225.742188 18.664062 228.699219 1.039062 231.660156 C -0.347656 247.84375 -0.347656 264.144531 1.039062 280.332031 C 18.664062 283.296875 36.289062 286.261719 53.914062 289.222656 C 56.144531 302.523438 59.632812 315.605469 64.386719 328.21875 C 50.628906 339.585938 36.867188 350.953125 23.109375 362.320312 C 29.753906 377.152344 38.027344 391.234375 47.40625 404.480469 C 64.183594 398.25 80.957031 392.015625 97.734375 385.785156 C 106.15625 396.378906 115.914062 405.871094 126.316406 414.484375 C 120.074219 431.183594 113.828125 447.882812 107.582031 464.585938 C 120.910156 473.890625 134.933594 482.265625 149.804688 488.84375 C 161.183594 475.101562 172.5625 461.355469 183.941406 447.613281 C 196.574219 452.382812 209.675781 455.925781 222.996094 458.089844 C 225.960938 475.6875 228.925781 493.289062 231.890625 510.886719 C 248.105469 512.371094 264.425781 512.371094 280.640625 510.886719 C 283.605469 493.289062 286.570312 475.6875 289.53125 458.089844 C 302.855469 455.949219 315.957031 452.378906 328.585938 447.613281 C 339.964844 461.355469 351.347656 475.101562 362.726562 488.84375 C 377.570312 482.21875 391.671875 473.957031 404.953125 464.585938 C 398.707031 447.882812 392.460938 431.183594 386.214844 414.484375 C 396.710938 405.90625 406.3125 396.238281 414.957031 385.785156 C 431.6875 392.015625 448.414062 398.25 465.140625 404.480469 C 474.484375 391.214844 482.808594 377.164062 489.417969 362.320312 C 475.660156 350.953125 461.902344 339.585938 448.144531 328.21875 C 452.816406 315.589844 456.511719 302.539062 458.613281 289.222656 C 476.242188 286.261719 493.867188 283.296875 511.492188 280.332031 C 512.285156 265.824219 512.066406 239.78125 511.414062 230.207031 Z M 511.414062 230.207031 "/>
<path style=" stroke:none;fill-rule:evenodd;fill:rgb(0%,20%,60%);fill-opacity:1;" d="M 325.894531 82.925781 L 186.8125 82.925781 L 186.8125 119.546875 L 220.933594 119.546875 L 220.933594 112.101562 L 239.203125 112.101562 L 239.203125 180.441406 L 231.890625 180.441406 L 231.890625 209.777344 L 280.640625 209.777344 L 280.640625 180.441406 L 273.34375 180.441406 L 273.34375 112.261719 L 291.757812 112.261719 L 291.757812 119.546875 L 325.894531 119.546875 L 325.894531 82.925781 "/>
<path style=" stroke:none;fill-rule:evenodd;fill:rgb(0%,20%,60%);fill-opacity:1;" d="M 180.609375 139.054688 L 180.609375 168.382812 L 188.070312 168.382812 L 188.070312 285.410156 L 180.609375 285.242188 L 180.609375 314.578125 L 229.523438 314.578125 L 229.523438 285.242188 L 222.207031 285.242188 L 222.207031 256.074219 L 290.484375 256.074219 L 290.484375 285.242188 L 283.183594 285.242188 L 283.183594 314.578125 L 331.921875 314.578125 L 331.921875 285.242188 L 324.625 285.242188 L 324.625 168.242188 L 331.921875 168.382812 L 331.921875 139.054688 L 283.183594 139.054688 L 283.183594 168.382812 L 290.484375 168.382812 L 290.484375 226.742188 L 222.207031 226.742188 L 222.207031 168.382812 L 229.523438 168.382812 L 229.523438 139.054688 L 180.609375 139.054688 "/>
<path style=" stroke:none;fill-rule:evenodd;fill:rgb(0%,20%,60%);fill-opacity:1;" d="M 256.347656 342.183594 L 310.007812 431.4375 L 380.347656 314.433594 L 397.8125 314.433594 L 397.8125 285.242188 L 339.382812 285.242188 L 339.382812 314.433594 L 346.210938 314.433594 L 310.007812 374.683594 L 256.1875 285.242188 L 202.519531 374.683594 L 166.480469 314.433594 L 173.3125 314.433594 L 173.3125 285.242188 L 114.714844 285.242188 L 114.714844 314.433594 L 132.339844 314.433594 L 202.679688 431.4375 L 256.347656 342.183594 "/>
</g>
</svg>
